<svg width="48" height="48" viewBox="0 0 48 48" fill="none" xmlns="http://www.w3.org/2000/svg">
<g clip-path="url(#clip0_259_1969)">
<path d="M28.6638 0H29.2498C29.5384 0.230594 29.6573 0.399426 29.6681 0.794119C29.6864 1.46925 29.6909 2.29607 29.6592 2.9674C30.25 3.11314 30.7422 3.28508 31.2704 3.59139C34.4225 5.41964 33.3594 8.81756 33.5918 11.7968C34.1933 11.2184 34.88 10.6499 35.5186 10.1059C36.6913 9.1073 37.8366 8.04647 39.0522 7.1063C39.606 6.678 40.6408 7.80553 41.0359 8.14627L43.1173 9.94373L45.1768 11.7161C45.5788 12.0621 46.011 12.4169 46.3831 12.7924C46.4595 12.8695 46.6761 13.1196 46.68 13.2198C46.6963 13.6448 46.6943 14.1127 46.6944 14.5345L46.6947 17.4788L46.6935 22.907C46.6932 23.8495 46.6992 24.7929 46.6865 25.7353C46.6795 26.2571 46.4527 26.3884 46.0104 26.5468C45.836 26.4835 45.5856 26.4014 45.4261 26.3201C45.2043 25.7036 45.2748 24.6456 45.275 23.9617L45.2763 20.8204L45.2791 16.4462C45.2794 15.698 45.2569 14.8208 45.2854 14.0804L37.32 14.0685L34.9276 14.073C34.5414 14.0739 33.9328 14.094 33.5675 14.0538L33.5682 19.1736C34.4219 19.1775 36.3708 19.0803 37.0606 19.2431C37.4764 19.3412 41.1505 22.0234 41.5574 22.4392C41.6266 22.51 41.6821 22.5916 41.7331 22.6761C41.8226 23.6752 41.7754 25.6476 41.7685 26.7037C41.7611 27.8389 41.8294 29.6659 41.7569 30.7605C42.8956 30.809 44.1374 30.7889 45.2837 30.7873C45.268 29.9845 44.9513 27.586 46.4674 28.4721C46.8153 28.6755 46.6999 30.3361 46.6966 30.7627C47.2673 30.7672 47.6381 30.7297 48 31.2312V31.7304C47.6663 32.1493 47.5561 32.2155 47.0175 32.217C45.4476 32.2217 43.8735 32.2092 42.3037 32.2096L32.4547 32.2229L20.6807 32.239C18.5665 32.2426 16.153 32.2998 14.0681 32.2338C14.5243 34.9248 14.6837 36.2703 11.9554 37.5526C11.9153 38.0168 12.0408 39.9959 11.7317 40.2168C10.1507 41.3473 10.5155 38.33 10.511 37.5307C7.70508 36.4114 7.99683 34.7735 8.37497 32.2401C5.80852 32.2558 3.16688 32.2196 0.596709 32.1927C0.325199 32.1899 0.144971 31.9137 0 31.7134V31.2696C0.401088 30.7205 0.567281 30.7835 1.22653 30.7681L1.22715 25.7631C1.22475 24.8542 1.17613 23.6758 1.28491 22.7536C1.29948 22.6301 1.57983 22.2608 1.68375 22.154C3.14834 20.6482 4.61484 19.1358 6.1102 17.6609C6.35841 17.4161 6.77948 17.448 7.02094 17.6627C8.23186 18.7401 9.32559 20.0623 10.5099 21.1639L10.503 16.6639C10.5018 15.8872 10.4904 15.1089 10.5185 14.3327C10.5313 13.9785 10.8281 13.702 11.0932 13.4907C11.5571 13.0894 11.8418 12.9514 12.3305 12.5323C12.8783 12.0625 14.2192 11.1228 14.3316 12.5227C14.3589 12.8636 13.6117 13.3786 13.3031 13.6174C15.8137 13.5609 18.3434 13.6309 20.856 13.5984C21.5677 13.5893 22.317 13.5794 23.0249 13.6369C22.2536 12.9697 21.1869 12.2166 20.3639 11.5718C19.8043 11.1335 18.7051 10.2594 18.1283 9.90234C17.58 10.328 16.8873 10.9629 16.2481 11.23C15.6734 11.4702 15.1691 10.5555 15.6056 10.1337C16.1075 9.64861 17.7578 8.08383 18.456 8.3805C18.6741 8.47317 20.0771 9.57675 20.3802 9.80887C21.7104 10.8354 23.0473 11.8534 24.3907 12.8627C24.4108 11.3547 24.3743 9.84028 24.3851 8.33161C24.389 7.78416 24.3865 7.257 24.4858 6.71484C24.5834 6.18506 24.7747 5.67698 25.0507 5.21437C25.8429 3.87957 26.8382 3.35246 28.2809 2.9794C28.319 2.14781 28.169 1.19411 28.37 0.379929C28.4028 0.247187 28.5654 0.0953302 28.6638 0ZM11.9259 27.4838C12.9469 28.4332 13.3004 29.4275 13.6884 30.7579C15.419 30.8562 17.2379 30.7536 18.9803 30.7859C20.7411 30.8185 22.5174 30.7608 24.2794 30.7882C24.3222 30.7888 24.3717 30.7664 24.4 30.7347L24.4027 20.3375C24.4029 18.6373 24.353 16.717 24.406 15.0432C20.4002 14.9929 16.3842 15.0391 12.3777 15.0382C12.2185 15.0381 12.0662 15.0411 11.9067 15.0321C11.9943 19.1822 12.0007 23.3335 11.9259 27.4838ZM32.1538 19.1898C32.1113 15.5835 32.1353 11.8626 32.1534 8.25169L25.7992 8.24625L25.8164 17.926C25.8167 18.4995 25.7352 20.9307 25.8387 21.3367L25.9175 21.3641C26.9127 20.8495 27.9642 19.5638 29.0379 19.2156C29.1955 19.1644 29.6715 19.176 29.8724 19.1783C30.573 19.1797 31.4692 19.1551 32.1538 19.1898ZM8.76694 30.7957C8.84953 30.4523 9.04786 29.8525 9.18727 29.515C9.58397 28.5654 9.77714 28.2088 10.4926 27.4763C10.528 26.2014 10.4866 24.9248 10.5145 23.6562C8.751 23.6416 6.98738 23.6375 5.2238 23.6437C4.72495 23.6456 3.07033 23.6867 2.66013 23.6301C2.6067 24.3188 2.64673 25.1954 2.63763 25.9018C2.61686 27.5158 2.6668 29.163 2.63691 30.7752C4.65018 30.7889 6.76716 30.7482 8.76694 30.7957ZM33.7709 30.7638C35.9569 30.8189 38.2058 30.7277 40.3657 30.8C40.3302 29.6223 40.358 28.3251 40.3624 27.1331C40.3666 26.0125 40.333 24.748 40.3722 23.64L35.9331 23.6315C35.3595 23.6318 34.3188 23.6696 33.7944 23.6263C33.7562 25.9703 33.851 28.4491 33.7709 30.7638ZM32.0568 6.80686C31.4592 5.06564 30.4039 4.29618 28.5505 4.4209C27.16 4.60442 26.2964 5.47434 25.9031 6.78966C27.089 6.80555 28.275 6.80962 29.4609 6.80189C30.3063 6.80212 31.2168 6.78497 32.0568 6.80686ZM29.1568 26.5242C31.4365 26.8301 31.3442 28.9469 31.1984 30.7563C31.5816 30.7652 32.0174 30.7859 32.3964 30.7817C32.3565 29.1092 32.4181 27.3893 32.398 25.7116C32.3896 25.0097 32.424 24.2579 32.3696 23.5581C32.3567 23.393 32.3065 23.2408 32.179 23.1378C31.7975 22.8298 29.3106 20.8898 29.085 20.8118C28.659 21.0842 26.1078 22.9992 25.8338 23.3052C25.7397 25.0276 25.8603 26.9663 25.8157 28.7062C25.7997 29.3303 25.8537 30.1565 25.7947 30.7588C26.1616 30.7678 26.5505 30.7842 26.9155 30.7849C26.8887 28.9861 26.5823 26.5778 29.1568 26.5242ZM31.3158 20.5952C31.4119 20.8425 32.0762 21.2452 32.3057 21.4281C32.7301 21.7663 33.1559 22.2171 33.7305 22.2022C34.8639 22.2226 35.9874 22.2005 37.12 22.2015C37.5273 22.1973 38.5184 22.2435 38.8458 22.2146C38.7001 22.0529 37.0392 20.7768 36.8036 20.719C35.7817 20.4688 33.7222 20.6603 32.5856 20.6027C32.1346 20.5799 31.7224 20.6277 31.3158 20.5952ZM3.63908 22.2294C4.692 22.2138 5.74509 22.2095 6.79814 22.2164C7.68666 22.2119 8.6505 22.1893 9.53156 22.2378C9.17405 21.8419 6.79669 19.2977 6.52819 19.2407C5.90428 19.8659 5.28492 20.4957 4.67006 21.1298C4.38554 21.4224 3.87862 21.9231 3.63908 22.2294ZM28.3208 30.7729C28.5954 30.7745 28.87 30.7776 29.1445 30.7823L29.8064 30.7853C29.8125 30.2962 29.8252 29.8013 29.8243 29.3125C29.8227 28.5253 29.8102 27.9923 28.9143 27.9464C28.698 28.0371 28.5005 28.1391 28.424 28.377C28.2174 29.0197 28.3348 30.0673 28.3208 30.7729ZM11.2422 33.1369C11.4348 33.1779 11.7009 33.2315 11.7792 33.4253C12.047 34.0878 11.9369 35.3094 11.9388 36.0192C12.3508 35.7289 12.7861 35.3735 12.8852 34.8238C13.0868 33.7059 12.0962 29.2737 11.1784 28.755C10.2106 30.1966 9.78183 32.2387 9.54516 33.9583C9.44231 34.7055 9.60234 35.4087 10.2765 35.8504C10.3558 35.9014 10.4368 35.9498 10.5193 35.9956C10.5197 35.5258 10.5092 35.0559 10.509 34.5865C10.5086 33.9086 10.4241 33.2515 11.2422 33.1369ZM39.4922 12.6433C40.927 12.6395 42.7274 12.5837 44.1249 12.6785L41.0649 10.0366C40.85 9.85008 39.6 8.73506 39.4055 8.64914C37.9511 9.86311 36.1438 11.3724 34.7693 12.6555C36.3435 12.6403 37.9179 12.6362 39.4922 12.6433Z" fill="#DB0955"/>
<path d="M17.9424 16.9646C18.0662 16.9522 18.2175 16.9478 18.3386 16.9773C18.4946 17.0152 18.6647 17.1316 18.7461 17.2708C18.9304 17.5858 18.9336 21.0546 18.8009 21.492C18.7304 21.7245 18.5762 21.8334 18.3706 21.943C18.2329 21.9537 18.0694 21.9587 17.9354 21.9244C17.7755 21.8835 17.644 21.7883 17.5656 21.6417C17.3631 21.2633 17.385 17.7995 17.5343 17.3391C17.6002 17.1364 17.7674 17.0572 17.9424 16.9646Z" fill="#DB0955" fill-opacity="0.988235"/>
<path d="M17.9409 23.9026C18.0649 23.8895 18.2166 23.8854 18.3381 23.9144C18.4952 23.9518 18.6664 24.0674 18.7462 24.209C18.9316 24.5378 18.9351 27.9866 18.8003 28.4299C18.7292 28.6637 18.5744 28.771 18.3677 28.8811C18.2304 28.891 18.0686 28.8959 17.9351 28.8613C17.776 28.8201 17.6458 28.7258 17.5668 28.58C17.3647 28.207 17.3833 24.7448 17.5335 24.2778C17.5987 24.0752 17.7663 23.9952 17.9409 23.9026Z" fill="#DB0955" fill-opacity="0.988235"/>
<path d="M21.4238 16.9678C21.558 16.9583 21.6934 16.9484 21.8246 16.9846C21.9746 17.0261 22.1252 17.1164 22.2018 17.2564C22.3932 17.6059 22.3971 21.0541 22.2689 21.4814C22.1972 21.7206 22.0528 21.8317 21.841 21.9467C20.7447 22.0385 20.9112 21.0378 20.9074 20.2292C20.9028 19.2772 20.8473 18.2502 21.0093 17.3188C21.0415 17.1334 21.2733 17.0385 21.4238 16.9678Z" fill="#DB0955" fill-opacity="0.988235"/>
<path d="M21.4185 23.9048C21.5437 23.8872 21.6926 23.8861 21.8151 23.9181C21.9728 23.9593 22.1248 24.0481 22.2044 24.1952C22.3888 24.5359 22.3854 28.0158 22.2719 28.4038C22.1992 28.6519 22.0601 28.7637 21.8401 28.8827C20.7464 28.9767 20.9105 27.9701 20.9072 27.166C20.9032 26.2138 20.8468 25.1875 21.0093 24.2558C21.0415 24.0714 21.2689 23.976 21.4185 23.9048Z" fill="#DB0955" fill-opacity="0.988235"/>
<path d="M14.4901 16.9695C14.6062 16.9583 14.7361 16.9506 14.8504 16.9757C15.0154 17.0119 15.183 17.1073 15.2703 17.2562C15.4609 17.5816 15.4533 21.0976 15.3366 21.4901C15.2664 21.7262 15.114 21.8364 14.9061 21.949C14.6609 21.9679 14.2112 21.944 14.1121 21.6503C13.993 21.1962 13.9144 20.3791 13.9773 19.9103C14.0902 19.0683 13.6372 17.364 14.4901 16.9695Z" fill="#DB0955" fill-opacity="0.988235"/>
<path d="M14.487 23.9051C14.6011 23.8894 14.7375 23.8856 14.8498 23.9106C15.016 23.9477 15.1833 24.041 15.2709 24.192C15.4598 24.5175 15.4537 28.0326 15.3356 28.4255C15.2647 28.6613 15.1113 28.7721 14.9029 28.8837C14.6603 28.9026 14.2109 28.8753 14.1134 28.5857C13.9948 28.1338 13.9152 27.3143 13.9782 26.8507C14.093 26.007 13.633 24.3128 14.487 23.9051Z" fill="#DB0955" fill-opacity="0.988235"/>
<path d="M28.8206 10.9831C30.9963 10.8587 30.7466 13.3038 30.7168 14.7392C30.6872 16.1675 30.5966 16.2638 29.1791 16.262C28.5251 16.2724 28.0386 16.3314 27.4381 16.0674C27.0986 15.3857 27.2671 13.2827 27.2943 12.4421C27.3204 11.6362 28.0489 11.1292 28.8206 10.9831ZM28.6589 14.8046L29.2692 14.8074C29.2841 14.4016 29.379 12.731 29.1768 12.4878C29.0345 12.4062 28.9783 12.4083 28.8165 12.3899C28.5543 12.9246 28.7121 14.1215 28.6589 14.8046Z" fill="#DB0955"/>
<path d="M8.24311 25.6016C8.6849 25.649 8.9603 25.866 8.9782 26.3295C9.00619 27.0524 9.0652 27.8398 8.91548 28.549C8.86823 28.7728 8.5657 28.9114 8.38242 29.0012C7.80136 28.9694 7.6118 28.6959 7.58836 28.1348C7.56398 27.551 7.55184 26.9624 7.59567 26.3791C7.63758 25.8219 7.75387 25.7516 8.24311 25.6016Z" fill="#DB0955" fill-opacity="0.988235"/>
<path d="M4.85285 25.6035C5.03187 25.6324 5.41263 25.7284 5.4731 25.9448C5.6554 26.6292 5.60604 27.4245 5.58026 28.1313C5.56244 28.6194 5.35662 28.8567 4.93235 29.0128C4.23738 28.934 4.16546 28.5194 4.16864 27.8914C4.17192 27.246 4.09397 26.4861 4.31944 25.8795C4.37755 25.7232 4.70238 25.6467 4.85285 25.6035Z" fill="#DB0955" fill-opacity="0.988235"/>
<path d="M38.2001 24.9878C38.5244 24.9536 38.9032 25.0015 39.0233 25.337C39.2569 25.9891 39.3376 27.1615 38.6365 27.5258C37.5229 27.7004 37.6648 26.2972 37.7674 25.5914C37.8145 25.2674 37.9383 25.1529 38.2001 24.9878Z" fill="#DB0955" fill-opacity="0.988235"/>
<path d="M35.4359 24.995C36.3283 24.8847 36.4512 25.5167 36.4317 26.2725C36.4178 26.8128 36.4231 27.2527 35.8947 27.5291C34.7661 27.6487 34.944 26.3149 35.0357 25.5702C35.0715 25.2797 35.2009 25.1482 35.4359 24.995Z" fill="#DB0955" fill-opacity="0.988235"/>
<path d="M28.9206 23.2841C29.2883 23.2075 29.6495 23.4402 29.7318 23.8067C29.8142 24.1732 29.5872 24.538 29.222 24.626C28.9806 24.6842 28.7267 24.6078 28.5575 24.4261C28.3883 24.2444 28.3302 23.9856 28.4054 23.7491C28.4806 23.5124 28.6775 23.3348 28.9206 23.2841Z" fill="#DB0955" fill-opacity="0.980392"/>
<path d="M42.7643 15.3307C44.0079 15.1639 43.7308 17.0472 43.5812 17.7994C43.5306 18.0542 43.3236 18.1732 43.1069 18.2767C42.8485 18.3048 42.7211 18.2276 42.4798 18.1299C42.124 17.603 42.1804 16.273 42.3623 15.6671C42.419 15.4782 42.5989 15.3973 42.7643 15.3307Z" fill="#DB0955" fill-opacity="0.988235"/>
<path d="M35.6364 15.3316C36.4945 15.2052 36.5995 16.0067 36.5775 16.6622C36.5555 17.317 36.6676 17.9574 35.9769 18.2725C35.0421 18.3707 35.0815 17.2409 35.107 16.6093C35.1286 16.0748 35.0807 15.5602 35.6364 15.3316Z" fill="#DB0955" fill-opacity="0.988235"/>
<path d="M39.135 15.3351C40.3316 15.1892 40.0795 16.5477 40.0774 17.3263C40.0763 17.7634 39.9378 18.0561 39.5618 18.2617C38.6892 18.3891 38.6025 17.5627 38.6315 16.9034C38.6566 16.3333 38.5335 15.6126 39.135 15.3351Z" fill="#DB0955" fill-opacity="0.988235"/>
<path d="M39.3317 34.6754C40.3477 32.8974 41.4477 32.5533 42.7068 34.4085C44.148 34.4243 45.8408 34.2644 47.268 34.4327C47.3637 34.444 47.4771 34.5203 47.5469 34.5903C47.6707 34.7133 47.7377 34.8819 47.7326 35.0562C47.7059 36.1763 45.9511 35.718 45.1723 35.8013C44.6842 35.8535 43.8112 35.8421 43.3081 35.8235C43.4841 36.3986 43.6455 36.9779 43.7924 37.5611C44.3397 37.5609 47.2057 37.2515 47.463 37.5661C48.5702 38.9191 46.3611 38.9011 45.5861 38.9007C44.9821 38.9166 44.5777 38.9994 44.0911 39.0006C44.2948 41.0298 43.9462 42.6716 41.8154 43.3574C41.7866 43.8749 41.9357 45.8889 41.5284 46.1351C40.0046 47.0565 40.3711 44.1647 40.3799 43.3533C38.9106 42.9644 38.1308 41.9141 37.9501 40.4434C34.7162 41.5773 31.7167 43.5371 29.2337 45.8858C28.6242 46.4623 27.7385 47.5815 27.2428 47.9996H26.8149C26.5933 47.8238 26.3751 47.6902 26.3399 47.3963C26.2994 47.0579 26.4959 46.7527 26.7053 46.5036C28.6905 44.1427 31.3195 42.0853 34.0257 40.6343C34.8307 40.2105 35.6551 39.8246 36.4963 39.478C36.7978 39.354 38.0078 38.9588 38.0921 38.7086C38.3696 37.8848 38.4633 37.0168 38.7683 36.1856C33.6381 36.8475 29.2026 37.8815 24.4189 39.9342C23.522 40.3224 22.6389 40.7419 21.7713 41.1919C21.2519 41.4626 20.4545 41.9242 19.9411 42.126C19.6676 42.0048 19.4248 41.9046 19.3168 41.5921C19.0371 40.7831 20.3165 40.3442 20.906 40.0413C22.2223 39.3544 23.5712 38.7319 24.9479 38.1761C25.8783 37.8029 26.82 37.4586 27.7717 37.1436C30.3857 36.2785 33.0634 35.6193 35.7802 35.1722C36.5236 35.049 37.2695 34.9415 38.0174 34.8495C38.3879 34.8031 38.9974 34.7475 39.3317 34.6754ZM40.3927 41.8719C40.3754 41.3555 40.3644 40.8359 40.3647 40.3195C40.3649 39.7003 40.3426 39.0973 41.0808 38.9783C41.2893 39.0281 41.5348 39.0769 41.6354 39.2839C41.9507 39.9329 41.7596 41.1176 41.8204 41.8887C42.2508 41.5547 42.6711 41.1894 42.7666 40.5904C42.9317 39.5546 41.9012 35.0398 41.059 34.6218C40.0716 35.7697 39.4266 38.8894 39.3884 40.4329C39.3724 41.0785 39.8722 41.5586 40.3927 41.8719Z" fill="#DB0955"/>
<path d="M0 41.07C0.215115 40.6663 0.204151 40.1493 0.32362 39.6725C0.682955 38.2606 1.54436 34.0524 3.72363 35.0199C4.60131 35.4096 5.34961 37.3312 5.56809 38.2369C6.26981 41.146 7.21781 43.667 3.84389 45.0921C3.838 45.7776 3.89397 47.0856 3.72564 47.6837C3.59025 47.7896 3.45081 47.9021 3.31077 48.001H2.95549C2.69784 47.8351 2.50628 47.7029 2.46701 47.3813C2.37582 46.635 2.43471 45.8046 2.42702 45.0485C2.33825 45.027 2.25023 45.0026 2.16309 44.9753C1.33534 44.7118 0.647161 44.0538 0.288171 43.2747C0.191009 43.0638 0.120907 42.8369 0.014867 42.6359L0 42.6081V41.07ZM2.43561 43.5524C2.43204 42.6823 2.06895 40.7469 3.18619 40.6944C4.44634 41.0298 3.48524 42.9936 3.94548 43.4274C4.13967 43.4165 4.31312 43.183 4.44418 43.0556C4.80816 42.7015 4.85677 42.1278 4.83066 41.6467C4.77338 40.5909 3.9556 37.0639 3.22875 36.4118C3.18249 36.3711 3.13195 36.3355 3.07801 36.3057C2.1233 37.7072 1.72938 39.6578 1.4659 41.3233C1.33762 42.1341 1.43865 42.9023 2.17888 43.392C2.26327 43.4474 2.34887 43.5008 2.43561 43.5524Z" fill="#DB0955"/>
<path d="M11.9788 48.0001C11.7684 47.8295 11.4911 47.6532 11.4563 47.3612C11.4232 47.0832 11.6534 46.8249 11.822 46.6262C12.4701 45.8623 16.2022 42.5387 16.9876 42.4748C17.1734 42.4597 17.3709 42.5247 17.5095 42.6497C17.6512 42.7775 17.7516 42.9746 17.7555 43.1668C17.7596 43.3725 17.6467 43.5556 17.5041 43.6957C17.2073 43.9873 16.7958 44.2212 16.4573 44.4652C15.9525 44.8347 15.4589 45.2193 14.9772 45.6185C14.4625 46.0419 13.9637 46.4841 13.4818 46.9445C13.1535 47.2623 12.7298 47.7217 12.3916 48.0001H11.9788Z" fill="#DB0955"/>
</g>
<defs>
<clipPath id="clip0_259_1969">
<rect width="48" height="48" fill="white"/>
</clipPath>
</defs>
</svg>
