<svg width="280" height="420" viewBox="0 0 280 420" fill="none" xmlns="http://www.w3.org/2000/svg">
<g clip-path="url(#clip0_1_512)">
<path d="M251.649 0H255.33C257.047 0.973309 258.821 1.92513 259.377 3.98551C260.142 6.82543 259.844 22.4124 259.664 26.1684C271.923 29.1201 281.055 34.3317 287.825 45.4623C290.28 49.4624 292 53.8691 292.905 58.4745C293.842 63.2965 293.696 67.6294 293.696 72.4828L293.684 92.2505C293.684 95.365 293.545 100.379 293.824 103.327C296.252 100.884 299.697 98.104 302.39 95.7739L318.683 81.7343L332.745 69.5807C335.092 67.5519 341.734 61.1434 344.537 61.1032C345.913 61.076 347.261 61.4826 348.393 62.2656C351.153 64.1895 356.465 69.0447 359.258 71.4628L378.273 87.8737L396.839 103.877C400.138 106.715 403.752 109.651 406.846 112.725C407.728 113.602 408.386 114.44 408.356 115.675C408.719 122.115 408.563 128.65 408.563 135.112L408.561 170.588L408.559 207.613L408.561 219.715C408.559 222.522 409.034 227.633 407.228 229.765C406.065 231.121 404.389 231.927 402.605 231.993C397.368 232.169 396.174 228.168 396.195 223.847L396.246 154.775C396.246 144.31 396.121 133.563 396.279 123.116C372.377 122.825 348.003 123.06 324.066 123.063L303.924 123.079C301.428 123.082 295.915 123.25 293.703 122.99L293.69 151.89C293.692 157.056 293.588 162.651 293.717 167.786L311.585 167.82C315.201 167.816 321.624 167.318 324.942 168.212C326.858 168.729 361.177 193.868 363.667 196.383C363.973 196.697 364.276 197.016 364.574 197.339C365.902 198.789 365.482 207.596 365.482 209.957L365.484 226.211C365.486 240.376 365.689 255.142 365.439 269.259C372.688 269.458 379.95 269.323 387.2 269.364C390.061 269.38 393.405 269.268 396.229 269.399C396.242 266.15 396.238 262.902 396.219 259.651C396.205 257.137 396.08 254.836 396.459 252.232C397.21 247.086 403.992 245.798 407.138 249.512C409.059 251.779 408.514 255.456 408.598 258.212C408.645 261.889 408.479 265.611 408.589 269.29C414.065 269.3 417.264 268.431 420 273.988V277.052C417.832 281.384 416.362 281.843 411.655 281.863C403.852 281.9 396.047 281.849 388.244 281.855C373.985 281.964 359.723 281.993 345.462 281.945L221.638 282.04L156.35 282.089L134.685 282.105C131.623 282.112 125.91 282.319 123.041 282.017C125.512 295.926 128.863 309.485 117.57 320.627C113.441 324.7 109.756 326.308 104.43 328.205C104.173 334.259 104.444 340.454 104.382 346.779C104.319 353.352 98.7773 355.837 93.5825 351.91C91.5545 350.378 92.0485 343.627 92.0592 340.996C92.0914 336.703 92.0879 332.411 92.0483 328.119C84.9659 325.957 79.8205 322.723 75.5038 316.571C68.2619 306.251 71.2893 293.692 73.4729 282.097C71.5233 282.229 68.1626 282.081 66.0575 282.071L51.3075 282.032L21.5152 281.966C16.3122 281.939 9.02325 282.216 3.93688 281.351C1.92157 281.008 0.816666 278.297 0 276.659V274.378C0.950451 272.912 0.726352 272.184 2.5467 270.57C4.49792 268.841 8.29078 269.309 10.851 269.413C10.4767 265.467 10.8335 259.633 10.8375 255.536L10.8333 227.788L10.83 208.751C10.83 207.369 10.7585 199.588 11.0305 198.952C12.3594 195.849 20.3438 188.207 22.5436 185.956L39.7474 168.415C42.6109 165.512 45.4564 162.591 48.2832 159.652C50.1123 157.751 51.9867 155.677 54.0022 153.997C55.7517 152.557 59.2171 152.386 60.9457 153.952C71.6818 163.679 81.4127 175.366 91.9298 185.267L91.93 144.41L91.9228 132.721C91.9174 129.764 91.8502 126.878 92.1557 123.93C92.3703 121.859 94.8228 119.929 96.4089 118.692L109.159 108.919C111.517 107.116 114.705 104.395 117.287 103.122C121.181 101.202 126.31 105.9 125.545 109.917C124.871 113.461 119.217 116.92 116.364 118.965C123.229 119.353 132.339 119.102 139.343 119.102L178.942 119.089C186.309 119.087 194.316 118.936 201.639 119.174L158.917 86.5581C155.483 88.8144 145.34 97.7169 142.412 98.3996C140.867 98.7599 139.29 98.4192 137.962 97.5772C136.446 96.6308 135.392 95.0953 135.053 93.3399C134.811 92.0721 135.143 89.5492 136.061 88.7291C142.238 83.2568 149.185 78.2855 155.854 73.3936C159.684 70.5834 164.778 75.4335 167.644 77.6288L176.834 84.6733L199.603 102.099C204.16 105.584 208.809 109.255 213.443 112.594L213.46 79.3244C213.454 73.5269 213.14 64.4392 214.132 58.9952C215.086 53.7803 217.075 48.809 219.981 44.3746C226.689 34.0206 235.577 28.7917 247.382 26.2609C247.25 20.9762 247.341 15.5532 247.341 10.2538C247.339 5.01311 246.777 2.88604 251.649 0ZM104.331 240.766C113.403 247.558 116.414 258.975 119.857 269.274C127.924 269.499 136.483 269.364 144.582 269.364L187.668 269.36L204.334 269.358C207.028 269.358 210.966 269.257 213.581 269.426C213.304 261.817 213.552 252.632 213.554 244.923L213.558 197.173L213.55 153.398C213.538 146.357 213.228 138.473 213.499 131.514C186.573 131.219 159.19 131.444 132.221 131.455L113.226 131.475C111.166 131.479 105.919 131.691 104.264 131.339L104.331 240.766ZM225.82 188.134C230.922 184.198 236.043 180.288 241.184 176.405C244.314 174.023 249.043 170.104 252.478 168.309C253.842 167.597 258.954 167.82 260.808 167.825L281.25 167.791C281.523 165.277 281.388 160.102 281.386 157.372L281.375 138.287L281.39 72.1596L242.96 72.1044L232.626 72.1288C230.785 72.1461 227.522 72.2663 225.764 72.1028L225.846 152.004V176.296C225.846 179.575 226.035 185.064 225.82 188.134ZM295.659 269.251C312.039 269.731 328.64 269.118 345.04 269.362C347.741 269.401 350.462 269.309 353.161 269.391C352.823 251.188 353.356 232.85 353.13 214.633C353.097 212.073 353.065 209.325 353.165 206.78L313.417 206.743L301.772 206.752C299.89 206.758 297.531 206.877 295.694 206.756L295.688 247.937C295.69 254.89 295.823 262.326 295.659 269.251ZM225.935 203.761C225.529 209.37 225.937 216.946 225.836 222.778C225.574 238.092 226.166 253.94 225.818 269.218C228.927 269.327 232.532 269.243 235.491 269.409L235.508 257.638C235.499 252.226 235.112 246.933 237.782 242.021C241.615 234.968 247.829 232.038 255.634 232.179C261.251 232.911 265.453 234.763 269.083 239.32C273.613 245.005 273.15 251.067 273.15 257.9L273.139 269.298C276.242 269.321 280.358 269.239 283.373 269.426C283.287 266.591 283.365 263.765 283.346 260.931C283.223 241.894 283.547 222.795 283.324 203.762C282.116 202.524 279.901 200.962 278.445 199.86L270.644 193.954L260.642 186.344C259.5 185.476 255.357 182.026 254.289 182.079C248.317 186.368 242.294 191.166 236.383 195.586C234.095 197.297 227.776 201.915 225.935 203.761ZM31.6725 194.361C39.1433 194.78 50.3799 194.461 58.1396 194.453C66.5058 194.452 75.1421 194.549 83.4881 194.439L66.7043 177.156C65.4632 175.869 58.5225 168.366 57.4297 168.079C50.9504 174.293 44.6467 181.262 38.2508 187.611C36.0911 189.755 33.8543 192.333 31.6725 194.361ZM255.22 59.5032L271.3 59.4991C274.099 59.4995 277.581 59.405 280.338 59.5893C278.037 49.9876 271.651 42.7861 262.205 39.5948C258.454 38.3279 255.449 38.269 251.526 38.4636C244.527 38.6806 238.145 41.8973 233.387 46.9633C229.64 50.9543 228.254 54.4605 226.617 59.5178C236.086 59.405 245.733 59.5046 255.22 59.5032ZM340.091 194.268C338.654 192.589 325.281 183.477 322.559 181.297C321.985 180.835 320.664 180.416 319.86 180.388C315.931 180.249 311.885 180.304 307.943 180.305L284.843 180.303C282.395 180.297 275.418 180.433 273.414 180.108C273.484 180.29 273.603 180.626 273.767 180.753C279.491 185.141 285.167 189.67 291.069 193.81C291.814 194.333 292.532 194.268 293.401 194.326C304.059 194.387 314.719 194.338 325.379 194.351L335.077 194.375C336.174 194.378 339.222 194.45 340.091 194.268ZM260.82 269.397L260.824 257.962C260.843 252.433 261.87 244.367 253.848 244.611C253.356 244.623 252.863 244.664 252.377 244.734C250.575 245.503 249.129 246.563 248.395 248.444C247.224 251.436 247.849 265.09 247.818 269.286C250.696 269.327 253.573 269.352 256.45 269.36C257.843 269.364 259.448 269.333 260.82 269.397ZM104.421 314.99C108.344 312.703 111.542 309.898 112.741 305.32C115.329 295.442 106.342 263.901 100.816 254.789C100.296 253.932 99.1549 252.096 98.1967 251.815C98.0909 251.785 97.9808 251.772 97.8727 251.75C95.9536 254.258 94.4647 256.746 93.1738 259.629C89.0289 268.882 82.1434 293.828 83.3858 303.425C83.8993 307.392 86.0498 310.898 89.2424 313.286C90.1292 313.95 91.0709 314.485 92.0618 314.975L92.0752 303.146C92.059 297.492 90.8109 289.929 98.7941 289.878C105.377 291.311 104.388 296.326 104.389 301.61C104.372 306.069 104.382 310.529 104.421 314.99ZM76.5514 269.38C77.7558 265.757 79.0203 261.569 80.4712 258.097C83.1288 251.241 86.0539 245.456 91.844 240.799C92.2265 229.665 91.6771 218.068 91.9763 206.903C76.0987 206.672 59.85 206.84 43.9476 206.846L30.1846 206.866C28.3143 206.87 24.8661 206.994 23.1322 206.807C23.1373 227.331 23.4261 248.799 23.1025 269.261C40.8341 269.67 58.8638 269.052 76.5514 269.38ZM344.763 75.5606C334.206 84.9226 323.279 93.9641 312.666 103.273C309.947 105.657 306.965 108.387 304.133 110.59C308.208 110.912 314.752 110.7 318.97 110.693L345.454 110.672L372.161 110.686C376.32 110.688 381.907 110.861 385.926 110.66C382.579 108.184 377.826 103.787 374.52 100.929L354.272 83.4781C352.749 82.1572 345.758 75.8578 344.763 75.5606Z" fill="#545D28"/>
<path d="M188.082 148.333C189.36 148.216 190.594 148.302 191.784 148.823C193.029 149.368 194.469 150.651 194.898 151.974C195.642 154.269 195.619 181.486 195.314 185.642C195.231 186.776 195.114 188.174 194.562 189.177C193.627 190.876 191.942 191.694 190.162 192.218C184.568 193.233 182.95 188.057 183.063 183.648C183.321 173.615 182.741 163.462 183.237 153.43C183.372 150.687 185.623 148.95 188.082 148.333Z" fill="#545D28"/>
<path d="M188.088 209.026C192.521 208.671 195.275 211.066 195.324 215.521C195.435 225.688 195.411 235.869 195.338 246.034C195.312 249.763 193.922 251.801 190.252 252.878C184.442 253.952 182.964 248.694 183.063 244.18C183.281 234.197 182.779 224.116 183.237 214.138C183.363 211.384 185.616 209.639 188.088 209.026Z" fill="#545D28"/>
<path d="M157.718 148.338C159.129 148.182 160.522 148.346 161.799 148.99C163.034 149.614 164.234 150.844 164.624 152.195C165.335 154.655 165.271 181.616 164.985 185.63C164.904 186.77 164.782 188.173 164.224 189.179C163.277 190.889 161.608 191.702 159.809 192.22C158.382 192.437 157.181 192.13 155.911 191.463C152.131 189.472 152.696 185.309 152.735 181.651C152.866 172.187 152.504 162.657 152.931 153.208C153.044 150.694 155.472 148.911 157.718 148.338Z" fill="#545D28"/>
<path d="M157.721 209.032C162.195 208.534 164.977 211.218 165.004 215.629C165.065 225.859 165.144 236.106 164.984 246.334C164.927 250.021 163.366 251.891 159.848 252.896C157.58 253.212 153.421 251.457 153.225 249.266C152.197 237.727 152.818 225.531 152.93 213.909C152.954 211.392 155.594 209.569 157.721 209.032Z" fill="#545D28"/>
<path d="M127.347 148.344C131.887 147.935 134.631 150.398 134.667 154.929C134.748 165.089 134.747 175.262 134.67 185.421C134.641 189.187 133.146 191.215 129.456 192.222C127.11 192.642 123.082 190.625 122.846 188.332C121.8 178.067 122.698 167.411 122.407 157.068C122.29 152.886 122.772 149.588 127.347 148.344Z" fill="#545D28"/>
<path d="M127.363 209.036C131.963 208.634 134.725 211.216 134.673 215.736C134.612 221.009 134.929 226.499 134.716 231.759C134.479 237.624 135.44 244.226 133.913 249.836C133.487 251.311 130.875 252.525 129.459 252.911C127.051 253.296 123.73 251.688 122.904 249.242C122.68 248.264 122.45 247.101 122.441 246.096C122.358 236.381 122.434 226.656 122.417 216.942C122.414 215.168 122.445 213.413 123.355 211.856C124.338 210.172 125.545 209.504 127.363 209.036Z" fill="#545D28"/>
<path d="M251.284 96.2696C251.787 96.2171 252.289 96.1796 252.794 96.157C256.852 95.9477 260.822 97.3824 263.808 100.137C266.983 103.04 268.597 107.125 268.624 111.393C268.656 117.568 268.568 123.612 268.656 129.801C268.738 135.449 269.384 141.753 261.717 141.995C259.772 142.056 257.785 142.002 255.835 141.987C240.032 141.942 237.599 143.999 238.561 125.625C238.838 120.325 237.932 113.883 238.824 108.553C239.183 106.303 240.054 104.166 241.371 102.307C243.869 98.7767 247.101 97.0182 251.284 96.2696ZM250.747 129.53L254.963 129.618C255.812 129.588 255.782 129.742 256.227 129.294C256.462 124.239 256.284 119.037 256.313 113.965C256.331 110.569 256.62 108.749 252.808 108.486C249.966 110.224 250.901 113.885 250.786 116.845C250.626 120.994 251.081 125.39 250.747 129.53Z" fill="#545D28"/>
<path d="M41.1174 224.224C42.4008 224.087 43.5904 224.05 44.8279 224.478C46.2265 224.967 47.8546 226.289 48.3983 227.702C49.2178 229.831 49.2231 248.021 48.3366 249.966C47.5113 251.776 45.9363 252.828 44.1169 253.47C42.8696 253.595 41.7209 253.593 40.5223 253.173C39.1411 252.689 37.8197 251.627 37.2156 250.269C36.0979 247.757 36.071 230.344 37.079 227.875C37.9073 225.846 39.162 224.983 41.1174 224.224Z" fill="#545D28"/>
<path d="M70.836 224.243C72.0718 224.101 73.2051 224.038 74.4177 224.413C75.9252 224.878 77.3423 226.066 78.0289 227.497C79.2514 230.044 79.0859 247.269 78.0216 250.058C77.3663 251.774 75.7044 252.746 74.0937 253.415C72.7108 253.595 71.4765 253.606 70.1515 253.107C68.8675 252.625 67.5579 251.596 67.0308 250.298C66.0499 247.88 65.9712 229.839 66.9682 227.608C67.7637 225.828 69.0568 224.907 70.836 224.243Z" fill="#545D28"/>
<path d="M253.591 203.49C254.726 203.448 255.903 203.563 256.938 204.054C258.396 204.74 259.492 206.017 259.945 207.564C261.126 211.448 259.044 214.709 255.212 215.734C246.451 215.886 246.118 204.866 253.591 203.49Z" fill="#545D28"/>
<path d="M344.275 303.526C346.543 298.76 350.358 292.813 355.599 290.987C358.561 289.96 361.811 290.177 364.608 291.59C368.675 293.617 371.308 297.466 373.603 301.235C377.53 301.383 382.651 301.028 386.665 300.893C392.355 300.72 398.048 300.647 403.741 300.669C409.158 300.673 418.368 299.398 417.654 307.63C417.309 310.929 415.154 313.021 411.822 313.117C403.944 313.347 396.072 313.119 388.186 313.343C385.317 313.423 381.665 313.677 378.868 313.468C380.469 318.195 382.124 324.161 383.246 328.972C391.915 328.228 400.596 327.459 409.307 327.483C411.58 327.489 414.418 327.463 416.079 329.237C419.174 332.489 417.707 339.195 412.835 339.613C405.591 340.321 398.264 339.999 391.016 340.819C389.351 341.008 387.378 341.275 385.723 341.264C388.652 358.079 383.533 374.397 365.753 379.224C365.433 383.746 365.706 388.654 365.683 393.43C365.66 398.578 366.343 405.48 358.673 405.017C356.215 404.869 354.033 402.989 353.592 400.481C352.983 395.378 353.559 389.849 353.428 384.688C353.389 383.102 353.651 381.513 353.188 379.987C353.03 379.481 352.681 379.218 352.207 379.025C349.999 378.125 347.952 377.52 345.883 376.271C337.208 371.04 332.955 363.601 332.126 353.741C303.936 364.184 278.16 380.242 256.36 400.942C253.61 403.592 250.946 406.33 248.372 409.151C245.608 412.211 241.147 418.222 238.02 420H235.097C231.014 417.525 228.174 414.594 231.669 409.763C235.327 404.705 239.878 399.861 244.269 395.434C264.381 375.275 288.094 359.067 314.18 347.65C319.487 345.302 327.715 341.919 333.26 340.257C334.117 337.497 334.425 334.677 335.075 331.919C336.18 327.237 337.481 321.122 339.164 316.655C288.276 322.91 241.97 334.954 195.773 357.728C192.999 359.092 190.244 360.492 187.508 361.932C183.922 363.85 179.069 367.026 175.257 368.132C174.057 368.48 172.279 367.808 171.246 367.008C169.788 365.874 168.837 364.211 168.598 362.379C168.415 360.858 168.804 359.305 169.79 358.12C171.92 355.556 186.153 348.727 189.87 346.863C227.192 328.568 266.94 315.708 307.906 308.677C315.88 307.277 323.886 306.061 331.917 305.029C335.561 304.557 340.836 304.162 344.275 303.526ZM353.413 366.19C353.358 362.158 353.337 358.126 353.354 354.094C353.352 351.783 353.206 347.585 353.711 345.495C353.953 344.462 354.482 343.52 355.238 342.776C356.541 341.494 358.101 341.234 359.832 341.166C366.641 342.156 365.562 347.577 365.687 352.749C365.796 357.199 365.474 361.924 365.745 366.35C369.686 363.731 373.24 360.782 374.184 355.845C376.083 345.901 367.635 313.819 361.512 305.185C360.979 304.432 360.207 303.169 359.262 302.991C352.964 310.384 349.459 324.587 347.257 333.988C346.071 339.047 344.172 348.875 344.554 353.889C344.876 357.763 346.715 361.352 349.671 363.876C350.782 364.826 352.054 365.646 353.413 366.19Z" fill="#545D28"/>
<path d="M0 362.217C1.17957 359.332 1.34807 354.207 2.05622 350.979C4.64721 339.17 10.5979 311.409 22.6252 306.1C25.5095 304.818 28.7911 304.771 31.7125 305.964C46.4711 312.104 54.6094 353.983 54.6689 368.817C54.6796 371.468 53.6597 375.416 52.6124 377.883C49.728 384.661 44.2714 390.016 37.4413 392.772C36.17 393.28 35.0029 393.682 33.6613 393.959C33.488 398.473 33.6878 402.985 33.6111 407.48C33.5547 410.78 34.2665 415.7 31.7104 418.126C30.756 419.032 29.2917 419.354 28.2708 420H26.516C25.4256 419.465 23.6484 418.696 22.7965 417.898C20.6296 415.87 21.3146 411.188 21.2547 408.38C21.153 403.606 21.3995 398.795 21.2219 394.019C12.8206 392.226 5.22192 385.526 1.98181 377.66C1.19884 375.758 0.909897 373.07 0 371.343V362.217ZM21.2734 381.004C21.2598 374.138 20.9582 366.92 21.6191 360.132C21.8894 357.355 25.0804 356.231 27.4516 356.067C29.5392 356.366 31.1635 356.791 32.5162 358.552C34.4086 361.015 33.5364 377.001 33.6615 381.123C37.517 378.502 41.1417 375.576 42.0511 370.695C43.9398 360.556 35.5876 328.66 29.4293 319.965C28.8611 319.161 28.1626 318.019 27.1741 317.791C18.4593 327.323 13.1431 355.003 12.3931 367.91C12.0705 373.464 16.5075 378.513 21.2734 381.004Z" fill="#545D28"/>
<path d="M105.227 420C101.835 417.951 98.2148 414.875 101.323 410.527C104.136 406.594 108.418 402.648 112.013 399.365C120.634 391.435 129.724 384.029 139.235 377.19C141.462 375.582 143.584 374.054 145.915 372.578C149.952 370.025 154.823 372.727 155.378 377.288C155.902 381.599 151.71 383.535 148.76 385.682C146.74 387.153 144.658 388.555 142.638 390.071C137.568 393.853 132.62 397.796 127.802 401.896C124.241 404.927 120.778 408.071 117.419 411.325C114.292 414.383 111.768 417.685 108.053 420H105.227Z" fill="#545D28"/>
</g>
<defs>
<clipPath id="clip0_1_512">
<rect width="420" height="420" fill="white"/>
</clipPath>
</defs>
</svg>
